<svg width="416" height="661" viewBox="0 0 416 661" fill="none" xmlns="http://www.w3.org/2000/svg">
<path d="M125.433 412.868V481.291L84.2246 445.524V412.868H125.433Z" fill="#9AC622"/>
<path d="M146.427 499.951L186.08 537.273V376.324H146.427V499.951Z" fill="#9AC622"/>
<path d="M249.06 448.634L208.628 484.401V335.893H249.06V448.634Z" fill="#9AC622"/>
<path d="M207.074 660.9V591.7L53.1241 450.967C56.2342 359.53 135.283 319.565 174.418 311.012C246.572 292.973 298.822 331.487 315.927 352.999L373.464 339.781C276.429 221.596 150.574 255.289 99.7756 286.909C13.9369 338.537 -2.33924 434.898 0.25251 476.626L207.074 660.9Z" fill="#A3D222"/>
<path d="M207.851 517.835V587.035L341.585 463.408L375.019 497.619L415.45 361.551L275.496 393.43L309.707 427.641L207.851 517.835Z" fill="white"/>
<path d="M207.851 27.5C277.257 27.5 333.523 83.7654 333.523 153.173C333.523 222.58 277.257 278.847 207.851 278.847C138.444 278.846 82.1787 222.58 82.1787 153.173C82.1789 83.7656 138.444 27.5002 207.851 27.5Z" stroke="#A3D222" stroke-width="55"/>
</svg>
